<svg width="50" height="55" viewBox="0 0 95 123" fill="none" xmlns="http://www.w3.org/2000/svg">
<path d="M57.96 55.22V95.09C57.96 104.15 55.5 110.93 50.58 115.43C45.66 119.99 38.58 122.27 29.34 122.27C24.54 122.27 20.04 121.73 15.84 120.65C11.64 119.57 8.07 117.98 5.13 115.88L11.34 103.91C13.32 105.53 15.81 106.79 18.81 107.69C21.87 108.65 24.87 109.13 27.81 109.13C32.31 109.13 35.61 108.14 37.71 106.16C39.81 104.18 40.86 101.24 40.86 97.34V95.72C37.56 99.56 32.73 101.48 26.37 101.48C22.05 101.48 18.06 100.52 14.4 98.6C10.74 96.62 7.83 93.86 5.67 90.32C3.51 86.72 2.43 82.58 2.43 77.9C2.43 73.28 3.51 69.2 5.67 65.66C7.83 62.06 10.74 59.3 14.4 57.38C18.06 55.4 22.05 54.41 26.37 54.41C33.33 54.41 38.43 56.66 41.67 61.16V55.22H57.96ZM30.42 87.89C33.48 87.89 36 86.96 37.98 85.1C40.02 83.24 41.04 80.84 41.04 77.9C41.04 74.96 40.05 72.59 38.07 70.79C36.09 68.93 33.54 68 30.42 68C27.3 68 24.72 68.93 22.68 70.79C20.7 72.59 19.71 74.96 19.71 77.9C19.71 80.84 20.73 83.24 22.77 85.1C24.81 86.96 27.36 87.89 30.42 87.89Z" fill="#3882f6"/>
<path d="M70.18 37.41C74.62 37.41 78.64 38.43 82.24 40.47C85.9 42.51 88.78 45.45 90.88 49.29C93.04 53.07 94.12 57.48 94.12 62.52C94.12 67.56 93.04 72 90.88 75.84C88.78 79.68 85.9 82.65 82.24 84.75C78.64 86.79 74.62 87.81 70.18 87.81C63.76 87.81 58.96 85.92 55.78 82.14V87H39.49V20.22H56.59V42.45C59.89 39.09 64.42 37.41 70.18 37.41ZM66.58 74.22C69.58 74.22 72.04 73.2 73.96 71.16C75.88 69.06 76.84 66.18 76.84 62.52C76.84 58.92 75.88 56.1 73.96 54.06C72.04 52.02 69.58 51 66.58 51C63.58 51 61.12 52.02 59.2 54.06C57.28 56.1 56.32 58.92 56.32 62.52C56.32 66.18 57.28 69.06 59.2 71.16C61.12 73.2 63.58 74.22 66.58 74.22Z" fill="#3882f6"/>
</svg>
